<svg xmlns="http://www.w3.org/2000/svg" version="1.1" xmlns:xlink="http://www.w3.org/1999/xlink" viewBox="0 0 700 700" style="overflow: hidden; display: block;" width="700" height="700"><defs><linearGradient id="two-3" x1="350" y1="-350" x2="350" y2="350" spreadMethod="pad" gradientUnits="userSpaceOnUse"><stop offset="0%" stop-color="hsl(1.4, 100%, 67%)" stop-opacity="1"></stop><stop offset="100%" stop-color="hsl(167, 52%, 78%)" stop-opacity="1"></stop></linearGradient></defs><g id="two-0" transform="matrix(1 0 0 1 0 0)" opacity="1"><path transform="matrix(1 0 0 1 350 350)" id="two-335" d="M 321.781057 53.695761 C 295.217105 114.018809 148.10554 -18.672775 122.386738 42.01542 C 111.175848 68.469557 175.33006 74.452823 186.495352 100.926237 C 192.042802 114.079494 182.469575 130.158928 185.224291 144.165852 C 192.899512 183.192102 263.297683 227.292163 234.124459 254.326959 C 205.306872 281.032185 163.140896 217.839593 129.290965 197.894554 C 109.298513 186.114613 92.518641 165.991222 70.131783 159.88436 C 60.778428 157.33288 50.449172 161.641831 40.77438 161.014386 C 31.481084 160.411682 20.820946 161.274867 12.951024 156.295618 C 1.686141 149.168398 3.035161 121.683618 -10.208597 123.19944 C -59.91008 128.888054 -24.626053 236.94023 -66.810771 263.829768 C -80.131028 272.320414 -101.013309 269.325262 -114.61041 261.285416 C -129.327607 252.583267 -140.521808 234.316045 -141.955314 217.278782 C -145.347046 176.967952 -66.21408 131.649882 -95.564102 103.810287 C -120.990581 79.69232 -157.020301 143.472029 -191.60556 149.132593 C -214.24373 152.837779 -238.89322 148.331964 -260.647995 141.05564 C -280.796158 134.31668 -313.449246 129.623304 -316.224777 108.560102 C -320.275255 77.821476 -274.394405 61.099166 -250.17178 41.746286 C -229.815058 25.482102 -192.372184 24.370401 -183.15246 0 C -179.232347 -10.361993 -198.334415 -22.590176 -192.763962 -32.166617 C -182.674994 -49.511061 -137.514968 -26.173374 -133.516454 -45.836257 C -121.902815 -102.946882 -275.527807 -91.322114 -276.426759 -149.594681 C -276.698581 -167.214995 -246.808657 -169.973207 -234.202227 -182.286911 C -222.549252 -193.669298 -219.176726 -218.136419 -203.074094 -220.597271 C -162.397155 -226.813641 -132.870815 -128.174892 -99.126131 -151.723838 C -54.140523 -183.117334 -187.083127 -289.9998 -137.499195 -313.466589 C -94.660162 -333.741192 -79.192096 -236.918652 -50.452428 -199.232133 C -37.892973 -182.762834 -32.739392 -145.564089 -12.374628 -149.339545 C 27.398597 -156.713167 -18.257386 -269.381382 22.121283 -266.964194 C 58.250324 -264.801401 6.390193 -171.678663 40.210658 -158.788299 C 58.193136 -151.93444 70.81047 -183.086697 85.672115 -195.312752 C 116.739819 -220.870853 139.24524 -267.148031 178.91315 -273.846963 C 197.768278 -277.03113 227.382578 -271.409896 233.03347 -253.14183 C 251.483481 -193.497088 88.663206 -148.081701 125.365024 -97.575516 C 150.329772 -63.220973 206.29616 -137.944782 248.627619 -134.550539 C 270.344457 -132.809229 304.495887 -127.245393 308.033223 -105.74794 C 313.030614 -75.377284 245.237052 -70.870911 241.570609 -40.311006 C 239.706857 -24.776582 256.726447 -12.194965 266.528218 -0.000001 C 282.456576 19.817414 332.027829 30.426765 321.781057 53.695761 Z " fill="hsl(167, 52%, 78%)" stroke="undefined" stroke-width="1" stroke-opacity="1" fill-opacity="1" visibility="visible" stroke-linecap="butt" stroke-linejoin="miter" stroke-miterlimit="4"></path></g></svg>