<svg xmlns="http://www.w3.org/2000/svg" version="1.1" xmlns:xlink="http://www.w3.org/1999/xlink" viewBox="0 0 700 700" style="overflow: hidden; display: block;" width="700" height="700"><defs><linearGradient id="two-3" x1="350" y1="-350" x2="350" y2="350" spreadMethod="pad" gradientUnits="userSpaceOnUse"><stop offset="0%" stop-color="hsl(1.4, 100%, 67%)" stop-opacity="1"></stop><stop offset="100%" stop-color="hsl(167, 52%, 78%)" stop-opacity="1"></stop></linearGradient></defs><g id="two-0" transform="matrix(1 0 0 1 0 0)" opacity="1"><path transform="matrix(1 0 0 1 350 350)" id="two-329" d="M 236.913425 39.533858 C 212.043682 48.716481 166.494268 29.128038 157.930911 54.21775 C 149.282837 79.555674 216.469929 88.325217 211.983553 114.719762 C 209.597125 128.759759 188.429546 134.756112 174.212929 135.595365 C 146.095336 137.255238 114.332449 82.738878 95.171365 103.383662 C 50.776029 151.21666 235.398311 241.244691 183.230516 280.455183 C 147.08997 307.619233 126.080635 176.256587 82.355464 187.751548 C 62.127195 193.069381 80.306766 236.579407 62.813324 248.04421 C 50.998864 255.787137 32.0749 251.560832 20.209779 243.895763 C 0.532693 231.184034 3.515723 196.528109 -15.107198 182.316754 C -23.006688 176.288567 -34.544691 172.655407 -44.255711 174.761847 C -65.114509 179.286378 -74.041817 209.437309 -94.514798 215.472035 C -108.272632 219.527367 -130.667027 223.292725 -137.727672 210.807894 C -159.786952 171.802051 -47.852841 118.144583 -80.640073 87.59847 C -110.950029 59.360304 -163.03983 179.285949 -190.525098 148.291635 C -210.517816 125.746445 -141.518524 104.026746 -137.135869 74.21422 C -135.904029 65.834768 -144.781843 58.39308 -145.51499 49.955358 C -146.278216 41.171469 -137.081117 31.328973 -141.278567 23.575223 C -150.37753 6.767136 -189.472199 18.523719 -194.181204 0 C -197.123762 -11.575083 -170.000252 -16.986352 -172.172173 -28.730455 C -180.049443 -71.324749 -269.632179 -56.621368 -283.983222 -97.491564 C -289.449344 -113.058479 -282.023802 -137.48296 -267.118817 -144.557475 C -219.877988 -166.979906 -151.01013 -51.297165 -117.751483 -91.649658 C -93.195594 -121.443152 -169.080835 -154.68798 -177.156159 -192.442889 C -181.825348 -214.272946 -190.351333 -251.31061 -169.653122 -259.673435 C -134.868666 -273.727611 -119.207995 -181.667082 -82.095885 -187.159765 C -67.258915 -189.355673 -63.53907 -211.553398 -56.989484 -225.046381 C -42.891337 -254.090364 -58.424301 -314.304971 -26.346623 -317.956443 C 2.961966 -321.292704 -9.46757 -242.516269 20.01384 -241.53114 C 56.964207 -240.296434 48.680612 -342.822967 84.384236 -333.225814 C 121.976125 -323.121095 66.634961 -242.769347 94.620204 -215.712339 C 105.253389 -205.431843 126.146603 -219.94419 139.376004 -213.330856 C 151.861598 -207.089349 156.221911 -190.312074 166.523114 -180.892324 C 176.845455 -171.453246 188.075223 -161.178731 201.325473 -156.697907 C 226.825921 -148.074445 262.340574 -170.527277 282.816967 -153.05289 C 296.2131 -141.620739 291.479263 -118.265669 293.554011 -100.77722 C 295.557422 -83.890087 293.283857 -66.16174 295.284715 -49.274305 C 297.23773 -32.790668 312.19554 -15.139554 305.389773 -0.000001 C 294.691391 23.798749 261.391035 30.496022 236.913425 39.533858 Z " fill="hsl(167, 52%, 78%)" stroke="undefined" stroke-width="1" stroke-opacity="1" fill-opacity="1" visibility="visible" stroke-linecap="butt" stroke-linejoin="miter" stroke-miterlimit="4"></path></g></svg>